<svg width="258" height="26" viewBox="0 0 258 26" fill="none" xmlns="http://www.w3.org/2000/svg">
<g clip-path="url(#clip0_3004_856)">
<path d="M170.474 22.3685C167.872 22.3685 165.576 21.9203 163.586 21.0238C161.618 20.1054 160.098 18.8153 159.027 17.1536C157.956 15.4699 157.42 13.5239 157.42 11.3154V11.0859C157.42 8.85556 157.956 6.90953 159.027 5.24774C160.098 3.56409 161.618 2.27402 163.586 1.37753C165.576 0.459178 167.872 0 170.474 0C173.119 0 175.426 0.459178 177.394 1.37753C179.362 2.27402 180.882 3.56409 181.953 5.24774C183.025 6.90953 183.56 8.85556 183.56 11.0859V11.3154C183.56 13.5457 183.025 15.4918 181.953 17.1536C180.882 18.8153 179.362 20.1054 177.394 21.0238C175.426 21.9203 173.119 22.3685 170.474 22.3685ZM170.474 16.9568C175.262 16.9568 177.657 15.1091 177.657 11.4138V11.0203C177.657 9.18355 177.044 7.79508 175.82 6.85486C174.617 5.89278 172.835 5.41174 170.474 5.41174C168.156 5.41174 166.385 5.89278 165.16 6.85486C163.936 7.81695 163.324 9.20542 163.324 11.0203V11.4138C163.324 13.2287 163.925 14.6062 165.128 15.5464C166.33 16.4867 168.112 16.9568 170.474 16.9568Z" fill="white"/>
<path d="M131.892 0.426392H137.697V8.59319H148.291V0.426392H154.096V21.9421H148.291V13.7753H137.697V21.9421H131.892V0.426392Z" fill="white"/>
<path d="M101.842 16.76H104.565C105.658 15.0326 106.237 12.8351 106.303 10.1675L106.5 0.426392H125.884V16.76H129.196V26.3043H123.391V21.9421H107.648V26.3043H101.842V16.76ZM120.078 16.76V5.64133H111.748L111.649 10.2003C111.584 12.9116 111.07 15.0982 110.108 16.76H120.078Z" fill="white"/>
<path d="M88.6611 22.3685C86.0591 22.3685 83.7632 21.9203 81.7734 21.0238C79.8055 20.1054 78.2858 18.8153 77.2144 17.1536C76.143 15.4699 75.6073 13.5239 75.6073 11.3154V11.0859C75.6073 8.85556 76.143 6.90953 77.2144 5.24774C78.2858 3.56409 79.8055 2.27402 81.7734 1.37753C83.7632 0.459178 86.0591 0 88.6611 0C91.3068 0 93.6136 0.459178 95.5815 1.37753C97.5494 2.27402 99.0691 3.56409 100.14 5.24774C101.212 6.90953 101.748 8.85556 101.748 11.0859V11.3154C101.748 13.5457 101.212 15.4918 100.14 17.1536C99.0691 18.8153 97.5494 20.1054 95.5815 21.0238C93.6136 21.9203 91.3068 22.3685 88.6611 22.3685ZM88.6611 16.9568C93.4496 16.9568 95.8439 15.1091 95.8439 11.4138V11.0203C95.8439 9.18355 95.2317 7.79508 94.0072 6.85486C92.8046 5.89278 91.0225 5.41174 88.6611 5.41174C86.3433 5.41174 84.5722 5.89278 83.3477 6.85486C82.1232 7.81695 81.511 9.20542 81.511 11.0203V11.4138C81.511 13.2287 82.1123 14.6062 83.3149 15.5464C84.5175 16.4867 86.2996 16.9568 88.6611 16.9568Z" fill="white"/>
<path d="M58.3108 0.426392H76.0875V5.60854H64.1161V21.9421H58.3108V0.426392Z" fill="white"/>
<path d="M25.4568 0.426392H31.2621V7.44524H38.0514C40.7846 7.44524 42.8727 8.04655 44.3159 9.24916C45.7809 10.4518 46.5133 12.1791 46.5133 14.4313V14.8249C46.5133 17.1208 45.7809 18.8809 44.3159 20.1054C42.8727 21.3299 40.7846 21.9421 38.0514 21.9421H25.4568V0.426392ZM37.9202 16.8912C39.7132 16.8912 40.6096 16.2133 40.6096 14.8577V14.4641C40.6096 13.8081 40.38 13.3162 39.9209 12.9882C39.4617 12.6383 38.7948 12.4634 37.9202 12.4634H31.2621V16.8912H37.9202ZM48.1533 0.426392H53.9586V21.9421H48.1533V0.426392Z" fill="white"/>
<path d="M0 0.426392H13.0538C15.6558 0.426392 17.6674 0.929299 19.0887 1.93512C20.5099 2.94093 21.2206 4.37313 21.2206 6.2317V6.55969C21.2206 8.44013 20.4662 9.90513 18.9575 10.9547C19.9196 11.4576 20.652 12.1026 21.155 12.8898C21.6579 13.6769 21.9093 14.5953 21.9093 15.6448V15.9728C21.9093 17.8314 21.1768 19.2964 19.7118 20.3678C18.2687 21.4174 16.268 21.9421 13.7097 21.9421H0V0.426392ZM13.5785 16.9568C15.1747 16.9568 15.9728 16.4101 15.9728 15.3169V14.9889C15.9728 13.9175 15.1747 13.3818 13.5785 13.3818H5.80531V16.9568H13.5785ZM13.0538 8.82278C13.8628 8.82278 14.4532 8.70252 14.8249 8.46199C15.2184 8.19961 15.4152 7.80603 15.4152 7.28125V6.95327C15.4152 5.92559 14.6281 5.41175 13.0538 5.41175H5.80531V8.82278H13.0538Z" fill="white"/>
</g>
<defs>
<clipPath id="clip0_3004_856">
<rect width="258" height="26" fill="white"/>
</clipPath>
</defs>
</svg>
