<svg width="471" height="41" viewBox="0 0 471 41" fill="none" xmlns="http://www.w3.org/2000/svg">
<path d="M447.074 41C442.317 41 438.12 40.1784 434.482 38.5352C430.884 36.8519 428.106 34.4873 426.147 31.4413C424.188 28.3553 423.209 24.7884 423.209 20.7405V20.3196C423.209 16.2317 424.188 12.6647 426.147 9.61877C428.106 6.53275 430.884 4.16813 434.482 2.52493C438.12 0.841642 442.317 0 447.074 0C451.911 0 456.129 0.841642 459.727 2.52493C463.325 4.16813 466.103 6.53275 468.062 9.61877C470.021 12.6647 471 16.2317 471 20.3196V20.7405C471 24.8284 470.021 28.3954 468.062 31.4413C466.103 34.4873 463.325 36.8519 459.727 38.5352C456.129 40.1784 451.911 41 447.074 41ZM447.074 31.0806C455.829 31.0806 460.206 27.694 460.206 20.9208V20.1994C460.206 16.8328 459.087 14.2879 456.848 12.5645C454.65 10.8011 451.392 9.91936 447.074 9.91936C442.837 9.91936 439.599 10.8011 437.36 12.5645C435.122 14.328 434.002 16.8729 434.002 20.1994V20.9208C434.002 24.2473 435.102 26.7722 437.3 28.4956C439.499 30.219 442.757 31.0806 447.074 31.0806Z" fill="white"/>
<path d="M376.537 0.781528H387.15V15.7507H406.519V0.781528H417.132V40.2185H406.519V25.2493H387.15V40.2185H376.537V0.781528Z" fill="white"/>
<path d="M368.632 40.2185H358.018V26.5719C353.9 27.1329 350.083 27.4135 346.565 27.4135C340.448 27.4135 335.831 26.131 332.713 23.566C329.635 21.001 328.096 17.1735 328.096 12.0836V0.781528H338.71V11.1217C338.71 13.4462 339.469 15.1496 340.988 16.2317C342.507 17.2737 344.906 17.7947 348.184 17.7947C350.982 17.7947 354.26 17.6344 358.018 17.3138V0.781528H368.632V40.2185Z" fill="white"/>
<path d="M280.704 0.781528H291.198V25.5499L310.686 0.781528H321.3V40.2185H310.806V15.4501L291.318 40.2185H280.704V0.781528Z" fill="white"/>
<path d="M229.438 30.7199H230.877C233.116 30.7199 234.695 30.1188 235.615 28.9164C236.574 27.7141 237.094 25.63 237.174 22.6642L237.593 0.781528H272.792V40.2185H262.179V10.3402H247.188L246.888 23.5059C246.808 29.0367 245.589 33.2048 243.23 36.0103C240.911 38.8157 237.473 40.2185 232.916 40.2185H229.438V30.7199Z" fill="white"/>
<path d="M185.165 0.781528H195.658V25.5499L215.147 0.781528H225.76V40.2185H215.267V15.4501L195.778 40.2185H185.165V0.781528Z" fill="white"/>
<path d="M138.566 0.781528H163.811C168.648 0.781528 172.426 1.9438 175.144 4.26833C177.902 6.55279 179.282 9.71897 179.282 13.7669V14.368C179.282 18.4159 177.902 21.6022 175.144 23.9267C172.426 26.2512 168.648 27.4135 163.811 27.4135H149.18V40.2185H138.566V0.781528ZM163.571 18.1554C165.17 18.1554 166.389 17.8348 167.229 17.1936C168.068 16.5523 168.488 15.6105 168.488 14.368V13.7669C168.488 12.5645 168.068 11.6427 167.229 11.0015C166.389 10.3602 165.17 10.0396 163.571 10.0396H149.18V18.1554H163.571Z" fill="white"/>
<path d="M91.2648 0.781528H130.661V40.2185H120.047V10.2801H101.878V40.2185H91.2648V0.781528Z" fill="white"/>
<path d="M48.531 0.781528H84.2696V9.97948H59.1446V15.9311H83.0703V25.0088H59.1446V31.0205H84.2696V40.2185H48.531V0.781528Z" fill="white"/>
<path d="M0 0.781528H10.6136V15.7507H29.982V0.781528H40.5956V40.2185H29.982V25.2493H10.6136V40.2185H0V0.781528Z" fill="white"/>
</svg>
