<svg width="248" height="34" viewBox="0 0 248 34" fill="none" xmlns="http://www.w3.org/2000/svg">
<g clip-path="url(#clip0_3005_894)">
<path d="M227.278 24.5987L238.102 18.5638C239.195 17.9516 240.015 17.4487 240.562 17.0551C241.13 16.6397 241.513 16.2679 241.71 15.94C241.928 15.5901 242.038 15.1965 242.038 14.7592V14.464C242.038 13.6769 241.655 13.0756 240.89 12.6601C240.146 12.2228 239.064 12.0041 237.643 12.0041C236.112 12.0041 234.931 12.2775 234.101 12.8241C233.291 13.3489 232.887 14.1251 232.887 15.1528V15.8088H227.278V15.12C227.278 12.4743 228.142 10.4845 229.87 9.15069C231.597 7.79502 234.155 7.11719 237.544 7.11719C240.802 7.11719 243.339 7.74036 245.154 8.98669C246.968 10.2112 247.876 11.9276 247.876 14.136V14.464C247.876 15.9509 247.362 17.2956 246.334 18.4982C245.328 19.679 243.59 20.9581 241.119 22.3356L237.446 24.3691H248.269V29.0593H227.278V24.5987Z" fill="white"/>
<path d="M211.227 12.7257H203.257V7.54358H225.002V12.7257H217.032V29.0593H211.227V12.7257Z" fill="white"/>
<path d="M166.898 7.54358H179.952C182.554 7.54358 184.566 8.04649 185.987 9.0523C187.408 10.0581 188.119 11.4903 188.119 13.3489V13.6769C188.119 15.5573 187.364 17.0223 185.856 18.0719C186.818 18.5748 187.55 19.2198 188.053 20.007C188.556 20.7941 188.808 21.7125 188.808 22.762V23.09C188.808 24.9486 188.075 26.4136 186.61 27.485C185.167 28.5345 183.166 29.0593 180.608 29.0593H166.898V7.54358ZM180.477 24.074C182.073 24.074 182.871 23.5273 182.871 22.434V22.1061C182.871 21.0346 182.073 20.4989 180.477 20.4989H172.704V24.074H180.477ZM179.952 15.94C180.761 15.94 181.351 15.8197 181.723 15.5792C182.117 15.3168 182.313 14.9232 182.313 14.3984V14.0705C182.313 13.0428 181.526 12.5289 179.952 12.5289H172.704V15.94H179.952Z" fill="white"/>
<path d="M127.549 7.54363H133.289V21.0566L143.948 7.54363H149.754V29.0594H144.014V15.5464L133.354 29.0594H127.549V7.54363ZM138.668 5.96931C133.792 5.96931 131.354 4.07793 131.354 0.295187V0H136.011V0.295187C136.011 0.77623 136.23 1.14794 136.667 1.41033C137.126 1.65085 137.793 1.77111 138.668 1.77111C140.242 1.77111 141.029 1.27914 141.029 0.295187V0H145.982V0.295187C145.982 2.19749 145.37 3.61876 144.145 4.55898C142.942 5.4992 141.117 5.96931 138.668 5.96931Z" fill="white"/>
<path d="M104.175 7.54358H123.723V12.5617H109.98V15.8088H123.067V20.7613H109.98V24.0412H123.723V29.0593H104.175V7.54358Z" fill="white"/>
<path d="M88.9564 29.4857C84.8457 29.4857 81.7298 28.6985 79.6088 27.1242C77.5098 25.528 76.4602 23.1884 76.4602 20.1054V19.8758H82.2983V20.1054C82.2983 21.5703 82.834 22.6418 83.9054 23.3196C84.9987 23.9756 86.748 24.3035 89.1532 24.3035C90.9462 24.3035 92.3128 24.1395 93.253 23.8116C94.2151 23.4617 94.6961 22.9588 94.6961 22.3028V21.9749C94.6961 21.5813 94.554 21.2861 94.2697 21.0893C94.0073 20.8706 93.5263 20.7285 92.8266 20.6629C92.1269 20.5755 91.0883 20.5317 89.7107 20.5317H85.283V16.0056H89.5468C90.7494 16.0056 91.6786 15.9618 92.3346 15.8744C93.0124 15.765 93.4826 15.601 93.7449 15.3824C94.0292 15.1637 94.1713 14.8576 94.1713 14.464V14.136C94.1713 12.9116 92.3565 12.2993 88.7268 12.2993C86.4746 12.2993 84.8566 12.6273 83.8726 13.2833C82.9105 13.9174 82.4295 14.9779 82.4295 16.4647V16.6943H76.5914V16.4647C76.5914 13.4254 77.63 11.1077 79.7072 9.51147C81.8063 7.91528 84.8566 7.11719 88.858 7.11719C91.1757 7.11719 93.1764 7.37958 94.8601 7.90435C96.5437 8.42912 97.8338 9.18349 98.7303 10.1674C99.6268 11.1295 100.075 12.2884 100.075 13.6441V14.0048C100.075 15.776 99.2223 17.1426 97.5168 18.1046C98.5226 18.5857 99.2879 19.187 99.8127 19.9086C100.337 20.6301 100.6 21.461 100.6 22.4012V22.762C100.6 24.883 99.5721 26.5338 97.5168 27.7146C95.4614 28.8953 92.6079 29.4857 88.9564 29.4857Z" fill="white"/>
<path d="M56.0525 23.8772H61.1362C61.5517 23.8772 61.8906 23.8334 62.153 23.746L53.035 8.42913V7.54358H59.0371L65.4656 18.9246L71.0413 7.54358H77.0107V8.42913L68.9422 23.7132C67.8927 25.7029 66.7994 27.0914 65.6624 27.8786C64.5473 28.6657 63.0932 29.0593 61.3002 29.0593H56.0525V23.8772Z" fill="white"/>
<path d="M30.0494 7.54358H43.8576C46.5033 7.54358 48.5696 8.17768 50.0565 9.44588C51.5652 10.6922 52.3195 12.4196 52.3195 14.628V14.956C52.3195 17.1644 51.5652 18.9028 50.0565 20.171C48.5696 21.4392 46.5033 22.0733 43.8576 22.0733H35.8548V29.0593H30.0494V7.54358ZM43.7264 17.0223C44.601 17.0223 45.2679 16.8474 45.7271 16.4975C46.1862 16.1477 46.4158 15.6338 46.4158 14.956V14.628C46.4158 13.9721 46.1862 13.4692 45.7271 13.1193C45.2679 12.7695 44.601 12.5945 43.7264 12.5945H35.8548V17.0223H43.7264Z" fill="white"/>
<path d="M0 23.8772H2.72227C3.81555 22.1498 4.39498 19.9523 4.46058 17.2847L4.65737 7.54358H24.0412V23.8772H27.3538V33.4215H21.5485V29.0593H5.80531V33.4215H0V23.8772ZM18.2359 23.8772V12.7585H9.90511L9.80672 17.3175C9.74112 20.0288 9.22728 22.2154 8.26519 23.8772H18.2359Z" fill="white"/>
</g>
<defs>
<clipPath id="clip0_3005_894">
<rect width="248" height="33.5" fill="white"/>
</clipPath>
</defs>
</svg>
