<svg width="453" height="49" viewBox="0 0 453 49" fill="none" xmlns="http://www.w3.org/2000/svg">
<path d="M416.534 0.780029H452.294V9.96003H427.154V15.9H451.094V24.96H427.154V30.96H452.294V40.14H416.534V0.780029Z" fill="white"/>
<path d="M386.809 10.26H372.229V0.780029H412.009V10.26H397.429V40.14H386.809V10.26Z" fill="white"/>
<path d="M327.089 0.780029H337.589V25.5L357.089 0.780029H367.709V40.14H357.209V15.42L337.709 40.14H327.089V0.780029Z" fill="white"/>
<path d="M272.118 30.66H277.098C279.098 27.5 280.158 23.48 280.278 18.6L280.638 0.780029H316.098V30.66H322.158V48.12H311.538V40.14H282.738V48.12H272.118V30.66ZM305.478 30.66V10.32H290.238L290.058 18.66C289.938 23.62 288.998 27.62 287.238 30.66H305.478Z" fill="white"/>
<path d="M248.004 40.92C243.244 40.92 239.044 40.1 235.404 38.46C231.804 36.78 229.024 34.42 227.064 31.38C225.104 28.3 224.124 24.74 224.124 20.7V20.28C224.124 16.2 225.104 12.64 227.064 9.6C229.024 6.52 231.804 4.16 235.404 2.52C239.044 0.84 243.244 0 248.004 0C252.844 0 257.064 0.84 260.664 2.52C264.264 4.16 267.044 6.52 269.004 9.6C270.964 12.64 271.944 16.2 271.944 20.28V20.7C271.944 24.78 270.964 28.34 269.004 31.38C267.044 34.42 264.264 36.78 260.664 38.46C257.064 40.1 252.844 40.92 248.004 40.92ZM248.004 31.02C256.764 31.02 261.144 27.64 261.144 20.88V20.16C261.144 16.8 260.024 14.26 257.784 12.54C255.584 10.78 252.324 9.9 248.004 9.9C243.764 9.9 240.524 10.78 238.284 12.54C236.044 14.3 234.924 16.84 234.924 20.16V20.88C234.924 24.2 236.024 26.72 238.224 28.44C240.424 30.16 243.684 31.02 248.004 31.02Z" fill="white"/>
<path d="M179.475 0.780029H203.355C208.115 0.780029 211.795 1.70003 214.395 3.54003C216.995 5.38003 218.295 8.00003 218.295 11.4V12C218.295 15.44 216.915 18.12 214.155 20.04C215.915 20.96 217.255 22.14 218.175 23.58C219.095 25.02 219.555 26.7 219.555 28.62V29.22C219.555 32.62 218.215 35.3 215.535 37.26C212.895 39.18 209.235 40.14 204.555 40.14H179.475V0.780029ZM204.315 31.02C207.235 31.02 208.695 30.02 208.695 28.02V27.42C208.695 25.46 207.235 24.48 204.315 24.48H190.095V31.02H204.315ZM203.355 16.14C204.835 16.14 205.915 15.92 206.595 15.48C207.315 15 207.675 14.28 207.675 13.32V12.72C207.675 10.84 206.235 9.90003 203.355 9.90003H190.095V16.14H203.355Z" fill="white"/>
<path d="M136.716 0.780029H172.476V9.96003H147.336V15.9H171.276V24.96H147.336V30.96H172.476V40.14H136.716V0.780029Z" fill="white"/>
<path d="M90.0891 0.780029H115.349C120.189 0.780029 123.969 1.94003 126.689 4.26003C129.449 6.54003 130.829 9.70003 130.829 13.74V14.34C130.829 18.38 129.449 21.56 126.689 23.88C123.969 26.2 120.189 27.36 115.349 27.36H100.709V40.14H90.0891V0.780029ZM115.109 18.12C116.709 18.12 117.929 17.8 118.769 17.16C119.609 16.52 120.029 15.58 120.029 14.34V13.74C120.029 12.54 119.609 11.62 118.769 10.98C117.929 10.34 116.709 10.02 115.109 10.02H100.709V18.12H115.109Z" fill="white"/>
<path d="M47.3296 0.780029H83.0896V9.96003H57.9496V15.9H81.8896V24.96H57.9496V30.96H83.0896V40.14H47.3296V0.780029Z" fill="white"/>
<path d="M0 0.780029H39.42V40.14H28.8V10.26H10.62V40.14H0V0.780029Z" fill="white"/>
</svg>
